<?xml version="1.0" encoding="utf-8"?>
<!-- Generator: Adobe Illustrator 27.9.0, SVG Export Plug-In . SVG Version: 6.00 Build 0)  -->
<svg version="1.1" id="Layer_1" xmlns="http://www.w3.org/2000/svg" xmlns:xlink="http://www.w3.org/1999/xlink" x="0px" y="0px"
	 viewBox="0 0 24 24" style="enable-background:new 0 0 24 24;" xml:space="preserve">
<style type="text/css">
	.st0{fill-rule:evenodd;clip-rule:evenodd;}
</style>
<path class="st0" d="M24,12c0,6.6-5.4,12-12,12C5.4,24,0,18.6,0,12C0,5.4,5.4,0,12,0C18.6,0,24,5.4,24,12z M13.9,5.6
	c0,1-0.8,1.9-1.9,1.9s-1.9-0.8-1.9-1.9S11,3.8,12,3.8S13.9,4.6,13.9,5.6z M18,12h-3.9l2.7,7.5h-3.2L12,15l-1.6,4.5H7.2L9.9,12H6V9
	h12V12z"/>
</svg>
