<?xml version='1.0' encoding='UTF-8'?>
<!-- Generator: Adobe Illustrator 27.9.0, SVG Export Plug-In . SVG Version: 6.00 Build 0)  -->
<svg xmlns="http://www.w3.org/2000/svg" xmlns:xlink="http://www.w3.org/1999/xlink" version="1.1" id="Layer_1" x="0px" y="0px" viewBox="0 0 24 24" style="enable-background:new 0 0 24 24;" xml:space="preserve" width="24" height="24">
<path d="M16.6,18.1c-0.2,0.2-0.5,0.2-0.8,0.1c-1.1-0.9-1.3-1.3-1.8-2.1c-1.8,1.8-3,2.3-5.3,2.3c-2.7,0-4.8-1.7-4.8-5  c0-2.6,1.4-4.4,3.4-5.3c1.8-0.8,4.2-0.9,6-1.1V6.6c0-0.8,0.1-1.7-0.4-2.4c-0.4-0.6-1.1-0.8-1.8-0.8C9.9,3.4,8.8,4,8.6,5.3  C8.5,5.6,8.3,5.9,8,5.9L4.9,5.6C4.6,5.5,4.3,5.3,4.4,4.9C5.1,1.1,8.5,0,11.6,0c1.6,0,3.6,0.4,4.8,1.6C18,3.1,17.9,5,17.9,7.1v5  c0,1.5,0.6,2.2,1.2,3c0.2,0.3,0.3,0.6,0,0.9L16.6,18.1L16.6,18.1z M13.3,10.3V9.6c-2.3,0-4.8,0.5-4.8,3.2c0,1.4,0.7,2.3,2,2.3  c0.9,0,1.7-0.6,2.2-1.5C13.4,12.6,13.3,11.5,13.3,10.3z M21.6,21c-2.6,1.9-6.4,3-9.7,3c-4.6,0-8.7-1.7-11.8-4.5  c-0.2-0.2,0-0.5,0.3-0.3c3.3,2,7.5,3.1,11.8,3.1c2.9,0,6.1-0.6,9-1.8C21.7,20.2,22.1,20.7,21.6,21z M22.7,19.8  c-0.3-0.4-2.2-0.2-3.1-0.1c-0.2,0-0.3-0.2,0-0.4c1.5-1.1,3.9-0.7,4.2-0.4c0.3,0.4-0.1,2.8-1.5,4c-0.2,0.2-0.4,0.1-0.3-0.1  C22.4,22,23.1,20.2,22.7,19.8z" transform="translate(0.0,0.0) scale(1.0) translate(0.0,0.0) scale(1.0)"/>
</svg>
