<?xml version='1.0' encoding='UTF-8'?>
<!-- Generator: Adobe Illustrator 27.9.0, SVG Export Plug-In . SVG Version: 6.00 Build 0)  -->
<svg xmlns="http://www.w3.org/2000/svg" xmlns:xlink="http://www.w3.org/1999/xlink" version="1.1" id="Layer_1" x="0px" y="0px" viewBox="0 0 24 24" style="enable-background:new 0 0 24 24;" xml:space="preserve" width="24" height="24">
<path d="M24,6.1C24,6.1,24,6.1,24,6.1c0-0.8-0.1-1.6-0.3-2.3l0,0.1c-0.3-1.3-1.1-2.4-2.2-3l0,0c-0.5-0.3-1.2-0.6-1.8-0.7l0,0  c-0.5-0.1-1-0.1-1.6-0.1h0c0,0-0.1,0-0.1,0H6C5.8,0,5.7,0,5.5,0C4.7,0,4,0.2,3.3,0.4l0,0C2,0.9,1,1.9,0.5,3.2l0,0  C0.3,3.6,0.2,4.1,0.1,4.6l0,0C0.1,5,0,5.4,0,5.8v0c0,0,0,0.1,0,0.1v12.2c0,0.1,0,0.3,0,0.4c0,0.9,0.2,1.7,0.5,2.4l0,0  c0.6,1.4,1.8,2.4,3.2,2.8l0,0c0.4,0.1,0.8,0.2,1.3,0.2l0,0C5.6,24,6.2,24,6.7,24h11c0.6,0,1.1,0,1.6-0.1l-0.1,0  c0.9-0.1,1.6-0.4,2.3-0.8l0,0c0.8-0.5,1.5-1.3,1.9-2.2l0,0c0.2-0.4,0.3-0.8,0.4-1.3l0,0C24,19,24,18.4,24,17.8c0-0.1,0-0.2,0-0.3v0  C24,13.7,24,9.9,24,6.1L24,6.1z M17.6,10.1v5.7c0,0,0,0.1,0,0.1c0,0.4-0.1,0.8-0.3,1.1l0,0c-0.3,0.6-0.8,1-1.4,1.1l0,0  c-0.3,0.1-0.7,0.2-1.1,0.2h0c0,0-0.1,0-0.1,0c-1,0-1.9-0.8-1.9-1.9c0-0.7,0.4-1.4,1.1-1.7l0,0c0.3-0.1,0.6-0.3,1-0.3l0,0  c0.4-0.1,0.8-0.2,1.1-0.2c0.3,0,0.5-0.3,0.5-0.5v0c0-0.1,0-0.1,0-0.2c0,0,0,0,0,0c0-1.8,0-3.6,0-5.4c0-0.1,0-0.1,0-0.2l0,0  c0-0.1-0.1-0.2-0.3-0.2c0,0,0,0,0,0h0c-0.2,0-0.3,0-0.5,0.1l0,0c-0.8,0.1-1.5,0.3-2.3,0.5L9.9,8.9c0,0,0,0,0,0  C9.6,9,9.4,9.2,9.4,9.4c0,0,0,0,0,0v0v0.1c0,2.6,0,5.2,0,7.8c0,0,0,0.1,0,0.1c0,0.4-0.1,0.8-0.2,1.2l0,0c-0.3,0.6-0.8,1.1-1.4,1.2  l0,0C7.4,19.9,7.1,20,6.7,20h0c0,0-0.1,0-0.1,0c-0.9,0-1.7-0.7-1.8-1.5l0,0c0-0.1,0-0.2,0-0.3c0-0.8,0.5-1.5,1.2-1.7l0,0  c0.3-0.1,0.7-0.2,1.1-0.3l0,0c0.3-0.1,0.6-0.1,0.9-0.2c0.3,0,0.6-0.3,0.6-0.7c0,0,0,0,0,0v0V15c0-3,0-5.9,0-8.9c0,0,0,0,0,0  c0-0.1,0-0.3,0-0.4l0,0c0.1-0.3,0.3-0.5,0.5-0.5l0,0c0.3-0.1,0.5-0.1,0.8-0.2c0.7-0.1,1.5-0.3,2.2-0.4l2.3-0.5  c0.7-0.1,1.3-0.3,2-0.4c0.2,0,0.4-0.1,0.6-0.1l0,0c0,0,0,0,0.1,0c0.3,0,0.5,0.2,0.5,0.5c0,0.1,0,0.1,0,0.2v0  C17.6,6.3,17.6,8.2,17.6,10.1L17.6,10.1z" transform="translate(0.0,0.0) scale(1.0) translate(0.0,0.0) scale(1.0)"/>
</svg>
