<?xml version='1.0' encoding='UTF-8'?>
<!-- Generator: Adobe Illustrator 27.9.0, SVG Export Plug-In . SVG Version: 6.00 Build 0)  -->
<svg xmlns="http://www.w3.org/2000/svg" xmlns:xlink="http://www.w3.org/1999/xlink" version="1.1" id="Layer_1" x="0px" y="0px" viewBox="0 0 24 24" style="enable-background:new 0 0 24 24;" xml:space="preserve" width="24" height="24">
<path d="M21.8,12h-2.9l-0.4-5.5c0-0.6-0.5-1-1.1-1h-2.2c0-3-2.4-5.5-5.5-5.5S4.4,2.4,4.4,5.5H2.2c-0.6,0-1.1,0.4-1.1,1L0,22.8  C0,23.4,0.4,24,1,24c0,0,0,0,0.1,0h21.8c0.6,0,1.1-0.5,1.1-1.1c0,0,0-0.1,0-0.1L22.9,13C22.8,12.4,22.4,12,21.8,12z M9.8,2.2  c1.8,0,3.3,1.5,3.3,3.3H6.5C6.5,3.6,8,2.2,9.8,2.2z M2.3,21.8L3.2,7.6h1.2v2.2c0,0.6,0.5,1.1,1.1,1.1s1.1-0.5,1.1-1.1V7.6h6.5v2.2  c0,0.6,0.5,1.1,1.1,1.1s1.1-0.5,1.1-1.1V7.6h1.2l0.9,14.2H2.3z M19.6,21.8l-0.5-7.6h1.8l0.8,7.6H19.6z" transform="translate(0.0,0.0) scale(1.0) translate(0.0,0.0) scale(1.0)"/>
</svg>
