<?xml version="1.0" encoding="utf-8"?>
<!-- Generator: Adobe Illustrator 27.9.0, SVG Export Plug-In . SVG Version: 6.00 Build 0)  -->
<svg version="1.1" id="Layer_1" xmlns="http://www.w3.org/2000/svg" xmlns:xlink="http://www.w3.org/1999/xlink" x="0px" y="0px"
	 viewBox="0 0 24 24" style="enable-background:new 0 0 24 24;" xml:space="preserve">
<style type="text/css">
	.st0{fill-rule:evenodd;clip-rule:evenodd;}
</style>
<g transform="translate(0.0,0.0) scale(1.0) translate(1.2595606183889352,0.0) scale(0.1952807160292921)">
	<path class="st0" d="M1.9,14.7h22.7v-0.4V4.1C24.6,1.8,27,0,29.9,0C32.7,0,35,1.9,35,4.1v10.2v0.4h38.6v-0.4V4.1
		c0-2.3,2.4-4.1,5.2-4.1S84,1.9,84,4.1v10.2v0.4h24.1c1,0,1.9,0.8,1.9,1.9V36c0,1-0.8,1.9-1.9,1.9H1.9C0.8,37.9,0,37,0,36V16.5
		C0,15.5,0.8,14.7,1.9,14.7L1.9,14.7z M0.5,42.2h109c0.3,0,0.5,0.2,0.5,0.5l0,0v79.7c0,0.2-0.2,0.5-0.5,0.5H0.5
		c-0.2,0-0.5-0.2-0.5-0.5V42.7C0,42.4,0.2,42.2,0.5,42.2L0.5,42.2L0.5,42.2z M8.2,50h95c0.5,0,0.9,0.5,0.9,0.9v64
		c0,0.5-0.4,0.9-0.9,0.9H7.8c-0.5,0-0.9-0.4-0.9-0.9V51.4c0-1,0.8-1.9,1.9-1.9L8.2,50L8.2,50z M78.2,29.9c2.9,0,5.3-1.9,5.3-4.1
		V15.1v-0.4H73v0.4v10.2c0,2.3,2.4,4.1,5.2,4.1L78.2,29.9L78.2,29.9z M29.3,29.9c2.9,0,5.3-1.9,5.3-4.1V15.1v-0.4H24.1v0.4v10.2
		c0,2.3,2.4,4.1,5.2,4.1V29.9L29.3,29.9z"/>
</g>
</svg>
