<?xml version="1.0" encoding="utf-8"?>
<!-- Generator: Adobe Illustrator 27.9.0, SVG Export Plug-In . SVG Version: 6.00 Build 0)  -->
<svg version="1.1" id="Layer_1" xmlns="http://www.w3.org/2000/svg" xmlns:xlink="http://www.w3.org/1999/xlink" x="0px" y="0px"
	 viewBox="0 0 24 24" style="enable-background:new 0 0 24 24;" xml:space="preserve">
<style type="text/css">
	.st0{fill-rule:evenodd;clip-rule:evenodd;}
</style>
<g transform="translate(0.0,0.0) scale(1.0) translate(0.0,0.0) scale(1.0)">
	<path class="st0" d="M1.8,1.9h7.5V0.7C9.2,0.3,9.6,0,10,0h4.1c0.4,0,0.7,0.3,0.7,0.7v1.1h7.4c0.3,0,0.5,0.2,0.5,0.5v2.2H1.3V2.3
		C1.3,2.1,1.5,1.9,1.8,1.9L1.8,1.9z M3,5.8h18.1c0.4,0,0.7,0.3,0.7,0.7l-1.5,16.8c0,0.4-0.3,0.7-0.7,0.7H4.5c-0.4,0-0.7-0.3-0.7-0.7
		L2.3,6.5C2.3,6.1,2.6,5.8,3,5.8L3,5.8z M14.8,8.4h1.9v12.8h-1.9V8.4L14.8,8.4z M7.2,8.4h1.9v12.8H7.2L7.2,8.4L7.2,8.4z M11,8.4h1.9
		v12.8H11V8.4L11,8.4z"/>
</g>
</svg>
