<?xml version="1.0" encoding="utf-8"?>
<!-- Generator: Adobe Illustrator 27.9.0, SVG Export Plug-In . SVG Version: 6.00 Build 0)  -->
<svg version="1.1" id="Layer_1" xmlns="http://www.w3.org/2000/svg" xmlns:xlink="http://www.w3.org/1999/xlink" x="0px" y="0px"
	 viewBox="0 0 24 24" style="enable-background:new 0 0 24 24;" xml:space="preserve">
<g>
	<path d="M6.2,24H1c-0.5,0-1-0.4-1-1v-5.2c0-0.3,0.1-0.5,0.3-0.7L17.1,0.3c0.4-0.4,1-0.4,1.4,0l5.2,5.2c0.4,0.4,0.4,1,0,1.4
		L6.9,23.7C6.7,23.9,6.4,24,6.2,24z M1.9,22.1h3.8l12-12l-3.8-3.8l-12,12V22.1z M15.3,4.9l3.8,3.8l2.5-2.5l-3.8-3.8L15.3,4.9z"/>
</g>
</svg>
