<?xml version="1.0" encoding="utf-8"?>
<!-- Generator: Adobe Illustrator 27.9.0, SVG Export Plug-In . SVG Version: 6.00 Build 0)  -->
<svg version="1.1" id="Layer_1" xmlns="http://www.w3.org/2000/svg" xmlns:xlink="http://www.w3.org/1999/xlink" x="0px" y="0px"
	 viewBox="0 0 24 24" style="enable-background:new 0 0 24 24;" xml:space="preserve">
<path d="M12,22.6c-0.3,0-0.5-0.1-0.7-0.3L2,13c-1.3-1.3-2-3-2-4.8c0-1.8,0.7-3.5,2-4.8c1.3-1.3,3-2,4.8-2c1.8,0,3.5,0.7,4.8,2
	L12,3.7l0.4-0.4c0.6-0.6,1.4-1.1,2.2-1.5c0.8-0.3,1.7-0.5,2.6-0.5c0.9,0,1.8,0.2,2.6,0.5c0.8,0.3,1.6,0.8,2.2,1.5c1.3,1.3,2,3,2,4.8
	c0,1.8-0.7,3.5-2,4.8l-9.3,9.3c-0.1,0.1-0.2,0.2-0.3,0.2C12.3,22.6,12.1,22.6,12,22.6z M6.8,3.4C6.2,3.4,5.5,3.5,5,3.8
	C4.4,4,3.9,4.3,3.4,4.8C2.5,5.7,2,6.9,2,8.2c0,1.3,0.5,2.5,1.4,3.4l8.6,8.6l8.6-8.6c0.4-0.4,0.8-1,1-1.5C21.8,9.4,22,8.8,22,8.2
	c0-0.6-0.1-1.2-0.4-1.8c-0.2-0.6-0.6-1.1-1-1.5c-0.4-0.4-1-0.8-1.5-1c-0.6-0.2-1.2-0.4-1.8-0.3c-0.6,0-1.2,0.1-1.8,0.4
	c-0.6,0.2-1.1,0.6-1.5,1l-1.1,1.1c-0.2,0.2-0.5,0.3-0.7,0.3c-0.3,0-0.5-0.1-0.7-0.3l-1.1-1.1c-0.4-0.4-1-0.8-1.5-1
	C8,3.5,7.4,3.4,6.8,3.4z"/>
</svg>
