<?xml version="1.0" encoding="utf-8"?>
<!-- Generator: Adobe Illustrator 27.9.0, SVG Export Plug-In . SVG Version: 6.00 Build 0)  -->
<svg version="1.1" id="Layer_1" xmlns="http://www.w3.org/2000/svg" xmlns:xlink="http://www.w3.org/1999/xlink" x="0px" y="0px"
	 viewBox="0 0 24 24" style="enable-background:new 0 0 24 24;" xml:space="preserve">
<path d="M24,12c0-6.4-5-11.6-11.3-12c-0.1,0-0.3,0-0.4,0c0,0-0.1,0-0.1,0c-0.1,0-0.1,0-0.2,0C5.4,0,0,5.4,0,12s5.4,12,12,12
	c0.1,0,0.1,0,0.2,0c0,0,0.1,0,0.1,0c0.1,0,0.3,0,0.4,0C19,23.6,24,18.4,24,12z M21.8,15.9c-0.4-0.1-1.4-0.4-3.3-0.6
	c0.2-1,0.2-2.1,0.2-3.3c0-0.9-0.1-1.8-0.1-2.6c2.3-0.3,3.3-0.6,3.4-0.6L21.7,8c0.5,1.2,0.8,2.6,0.8,4C22.5,13.4,22.2,14.7,21.8,15.9
	z M6.7,12c0-0.8,0.1-1.7,0.2-2.4c1.2,0.1,2.7,0.2,4.4,0.2v5.2c-1.7,0-3.1,0.1-4.3,0.2C6.8,14.1,6.7,13.1,6.7,12L6.7,12z M12.7,1.6
	c1.8,0.5,3.4,3.1,4.1,6.5c-1.1,0.1-2.5,0.2-4.1,0.2V1.6z M11.2,1.6v6.6c-1.6,0-3-0.1-4.1-0.2C7.8,4.7,9.4,2.2,11.2,1.6z M11.2,16.4
	v5.9c-1.7-0.5-3.2-2.8-4-5.8C8.4,16.5,9.7,16.4,11.2,16.4L11.2,16.4z M12.7,22.4v-6c1.5,0,2.9,0.1,4,0.2
	C15.9,19.6,14.4,21.9,12.7,22.4z M12.7,14.9V9.7c1.7,0,3.2-0.1,4.4-0.2c0.1,0.8,0.2,1.6,0.2,2.4c0,1.1-0.1,2.1-0.2,3.1
	C15.8,15,14.4,14.9,12.7,14.9L12.7,14.9z M21.4,7.4c-0.2,0.1-1.2,0.3-3.1,0.6c-0.4-2.2-1.2-4.2-2.2-5.5C18.5,3.4,20.3,5.1,21.4,7.4
	L21.4,7.4z M8.4,2.1C7.2,3.5,6.2,5.6,5.7,7.9C4,7.8,2.9,7.5,2.5,7.4C3.7,5,5.8,3.1,8.4,2.1L8.4,2.1z M2,8.8c0.3,0.1,1.4,0.3,3.4,0.6
	c-0.1,0.8-0.2,1.7-0.2,2.6c0,1.1,0.1,2.2,0.3,3.2c-1.7,0.2-2.8,0.4-3.3,0.5c-0.5-1.2-0.7-2.4-0.7-3.8C1.5,10.9,1.7,9.8,2,8.8L2,8.8z
	 M2.9,17.2c0.5-0.1,1.5-0.3,3-0.4c0.6,2.1,1.5,3.9,2.6,5.1C6.1,21,4.1,19.3,2.9,17.2L2.9,17.2L2.9,17.2z M16.2,21.6
	c0.9-1.2,1.6-2.9,2-4.9c1.5,0.2,2.4,0.4,2.9,0.5C20,19.2,18.3,20.7,16.2,21.6z"/>
</svg>
