<?xml version="1.0" encoding="utf-8"?>
<!-- Generator: Adobe Illustrator 27.9.0, SVG Export Plug-In . SVG Version: 6.00 Build 0)  -->
<svg version="1.1" id="Layer_1" xmlns="http://www.w3.org/2000/svg" xmlns:xlink="http://www.w3.org/1999/xlink" x="0px" y="0px"
	 viewBox="0 0 24 24" style="enable-background:new 0 0 24 24;" xml:space="preserve">
<style type="text/css">
	.st0{fill-rule:evenodd;clip-rule:evenodd;}
</style>
<path class="st0" d="M0.7,3.8C1.3,3,2.2,2.4,3.4,2.4h17.3c1.1,0,2.1,0.6,2.7,1.4c0.4,0.6,0.7,1.3,0.7,2v12.3c0,1.9-1.5,3.4-3.4,3.4
	H3.4C1.5,21.6,0,20,0,18.2V5.8C0,5.1,0.2,4.4,0.7,3.8z M3.5,4.8l7.6,8.4c0.5,0.5,1.3,0.5,1.8,0l7.6-8.4H3.5z M21.6,7.1l-6.9,7.6
	c-1.4,1.6-3.9,1.6-5.3,0L2.4,7.1v11c0,0.6,0.5,1,1,1h17.3c0.5,0,1-0.4,1-1V7.1z"/>
</svg>
