<?xml version="1.0" encoding="utf-8"?>
<!-- Generator: Adobe Illustrator 27.9.0, SVG Export Plug-In . SVG Version: 6.00 Build 0)  -->
<svg version="1.1" id="Layer_1" xmlns="http://www.w3.org/2000/svg" xmlns:xlink="http://www.w3.org/1999/xlink" x="0px" y="0px"
	 viewBox="0 0 24 24" style="enable-background:new 0 0 24 24;" xml:space="preserve">
<style type="text/css">
	.st0{fill-rule:evenodd;clip-rule:evenodd;}
</style>
<path class="st0" d="M12,0c6.6,0,12,5.4,12,12s-5.4,12-12,12S0,18.6,0,12S5.4,0,12,0z M12,1.3C6.1,1.3,1.3,6.1,1.3,12
	S6.1,22.7,12,22.7S22.7,17.9,22.7,12S17.9,1.3,12,1.3z M11.5,9.1c-1.1,0.5-2,1.3-2.9,2.6c-0.1,0.2-0.1,0.3,0,0.4
	c0.1,0.1,0.1,0,0.3-0.1c0,0,0,0,0,0c0.1-0.1,0.2-0.2,0.4-0.5c0.7-0.8,1-1.1,1.5-1.4c0.4-0.3,0.8,0.1,0.8,0.6c0,0.1-0.1,0.2-0.1,0.4
	c0,0.1-0.1,0.1-0.1,0.2c-0.2,0.4-0.3,0.8-0.6,1.5l0,0c-0.1,0.2-0.1,0.2-0.2,0.5c-0.4,1-0.6,1.6-0.8,2.2l0,0c0,0.1-0.1,0.2-0.1,0.3
	c-0.3,0.7-0.4,1.2-0.5,1.7c0,0.1,0,0.1,0,0.2c-0.1,0.3-0.1,0.5-0.1,0.7c0,0.3,0,0.6,0.1,0.8c0.1,0.3,0.4,0.4,0.7,0.5
	c0.5,0.1,0.9,0.1,1.3,0c0.2-0.1,0.4-0.1,0.7-0.2c0.6-0.2,1.2-0.6,1.8-1.1c0.5-0.4,1-1,1.5-1.6c0-0.1,0-0.1,0.1-0.1
	c0.2-0.2,0.2-0.3,0.3-0.5c0-0.1-0.1-0.3-0.2-0.2c0,0-0.1,0.1-0.2,0.2c-0.1,0.1-0.1,0.1-0.1,0.1c-0.1,0.1-0.2,0.3-0.4,0.4
	c-0.2,0.2-0.5,0.5-0.8,0.8c-0.2,0.2-0.4,0.3-0.6,0.4c-0.4,0.2-0.7,0-0.7-0.5c0-0.3,0.1-0.6,0.2-0.8c0.2-0.6,0.4-1.1,0.8-2.1
	c0.2-0.5,0.2-0.7,0.3-0.9c0.3-0.7,0.5-1.3,0.7-1.9c0.3-0.7,0.4-1.2,0.5-1.8c0-0.4-0.1-0.8-0.3-1.1c-0.3-0.3-0.7-0.4-1.2-0.4
	C12.7,8.6,12.1,8.8,11.5,9.1L11.5,9.1z M15.3,4.2c-1-0.4-2.2,0.3-2.4,1.4C12.8,6.4,13,7,13.6,7.3c1.2,0.6,2.6-0.3,2.6-1.6
	C16.2,5,15.9,4.5,15.3,4.2L15.3,4.2z"/>
</svg>
