<?xml version="1.0" encoding="utf-8"?>
<!-- Generator: Adobe Illustrator 27.9.0, SVG Export Plug-In . SVG Version: 6.00 Build 0)  -->
<svg version="1.1" id="Layer_1" xmlns="http://www.w3.org/2000/svg" xmlns:xlink="http://www.w3.org/1999/xlink" x="0px" y="0px"
	 viewBox="0 0 24 24" style="enable-background:new 0 0 24 24;" xml:space="preserve">
<style type="text/css">
	.st0{fill-rule:evenodd;clip-rule:evenodd;}
</style>
<g id="Page-1" transform="translate(0.0,0.0) scale(1.0) translate(0.0,0.0) scale(1.0)">
	<g id="Dribbble-Light-Preview" transform="translate(-340.000000, -7439.000000)">
		<g id="icons" transform="translate(56.000000, 160.000000)">
			<path id="instagram-_x5B__x23_167_x5D_" class="st0" d="M291,7279.1c-2,0.1-3.6,0.6-5,1.9c-1.4,1.4-1.8,3.1-1.9,5
				c-0.1,1.2-0.4,10.3,0.6,12.7c0.6,1.6,1.9,2.9,3.5,3.5c0.8,0.3,1.6,0.5,2.9,0.6c10.6,0.5,14.6,0.2,16.2-4c0.3-0.8,0.5-1.6,0.6-2.9
				c0.5-10.7-0.1-13-1.9-14.8C304.4,7279.6,302.7,7278.6,291,7279.1 M291.1,7300.7c-1.2-0.1-1.8-0.2-2.2-0.4
				c-1.1-0.4-1.9-1.2-2.3-2.3c-0.7-1.8-0.5-10.4-0.4-11.8c0.1-1.4,0.3-2.6,1.3-3.6c1.2-1.2,2.7-1.8,13.2-1.3
				c1.4,0.1,2.6,0.3,3.6,1.3c1.2,1.2,1.8,2.7,1.3,13.2c-0.1,1.2-0.2,1.8-0.4,2.2C304.2,7300.8,301.7,7301.2,291.1,7300.7
				 M300.9,7284.6c0,0.8,0.6,1.4,1.4,1.4c0.8,0,1.4-0.6,1.4-1.4c0-0.8-0.6-1.4-1.4-1.4C301.5,7283.2,300.9,7283.8,300.9,7284.6
				 M289.8,7291c0,3.4,2.7,6.1,6.1,6.1s6.1-2.7,6.1-6.1s-2.7-6.1-6.1-6.1S289.8,7287.6,289.8,7291 M292,7291c0-2.2,1.8-4,4-4
				c2.2,0,4,1.8,4,4c0,2.2-1.8,4-4,4C293.8,7295,292,7293.2,292,7291"/>
		</g>
	</g>
</g>
</svg>
