<?xml version="1.0" encoding="utf-8"?>
<!-- Generator: Adobe Illustrator 27.9.0, SVG Export Plug-In . SVG Version: 6.00 Build 0)  -->
<svg version="1.1" id="Layer_1" focusable="false" xmlns="http://www.w3.org/2000/svg" xmlns:xlink="http://www.w3.org/1999/xlink"
	 x="0px" y="0px" viewBox="0 0 24 24" style="enable-background:new 0 0 24 24;" xml:space="preserve">
<path d="M22.1,18.9c-0.3,1.5-1.4,2.3-2.9,2.5c-1.3,0.2-2.4,0.3-3.4-0.5c-1.3-1.1-1.3-2.8-0.1-3.9c0.9-0.9,2.2-1,4.1-1.4
	c0.3-0.1,0.6-0.1,0.8-0.4c0.3-0.4,0.2-0.2,0.2-8.7c0-0.6-0.3-0.8-0.9-0.7C19.4,6,10,7.7,10,7.7C9.4,7.8,9.3,8,9.3,8.6
	c0,12.4,0.1,11.9-0.1,12.7c-0.2,1-0.8,1.7-1.6,2.1c-0.9,0.5-2.5,0.7-3.4,0.6c-2.3-0.4-3.1-3.1-1.5-4.6c0.9-0.9,2.2-1,4.1-1.4
	c0.3-0.1,0.6-0.1,0.8-0.4C8.1,17,7.6,4,7.8,3.3C7.8,3,8,2.8,8.2,2.6c0.2-0.2,0.6-0.3,0.7-0.3C19.7,0.3,21,0,21.2,0
	c0.6,0,1,0.3,1,0.9C22.2,19.2,22.2,18.2,22.1,18.9z"/>
</svg>
