<?xml version="1.0" encoding="utf-8"?>
<!-- Generator: Adobe Illustrator 27.9.0, SVG Export Plug-In . SVG Version: 6.00 Build 0)  -->
<svg version="1.1" id="Layer_1" xmlns="http://www.w3.org/2000/svg" xmlns:xlink="http://www.w3.org/1999/xlink" x="0px" y="0px"
	 viewBox="0 0 24 24" style="enable-background:new 0 0 24 24;" xml:space="preserve">
<path d="M1.2,22.8c-0.7,0-1.2-0.5-1.2-1.2V12c0-0.7,0.5-1.2,1.2-1.2h3.6v12H1.2z M21.5,9.6h-6.9v-6c0-2.4-3.7-2.4-3.7-2.4
	s0,4.8-1.2,6C9,7.8,8,10,7.2,10.8v12H20c1.2,0,2.2-0.8,2.4-2l1.6-8.4c0.2-1.3-0.7-2.6-2-2.8C21.8,9.6,21.7,9.6,21.5,9.6z"/>
</svg>
