<?xml version="1.0" encoding="utf-8"?>
<!-- Generator: Adobe Illustrator 27.9.0, SVG Export Plug-In . SVG Version: 6.00 Build 0)  -->
<svg version="1.1" id="Layer_1" xmlns="http://www.w3.org/2000/svg" xmlns:xlink="http://www.w3.org/1999/xlink" x="0px" y="0px"
	 viewBox="0 0 24 24" style="enable-background:new 0 0 24 24;" xml:space="preserve">
<path d="M1.1,22.9h18.2c1.6,0,3-1.1,3.3-2.7l1.4-7.6c0.2-0.9-0.1-1.9-0.7-2.7c-0.6-0.8-1.6-1.2-2.6-1.2h-5.2V4.4
	c0-2.2-2.3-3.3-4.4-3.3c-0.6,0-1.1,0.5-1.1,1.1c0,2.1-0.4,4.3-0.8,4.7l-3,3h-5C0.5,9.8,0,10.3,0,10.9v10.9C0,22.4,0.5,22.9,1.1,22.9
	z M7.6,11.4l3-2.9c1-1,1.3-3.4,1.4-5c0.6,0.1,1.2,0.4,1.2,0.9v5.5c0,0.6,0.5,1.1,1.1,1.1h6.3c0.3,0,0.7,0.1,0.9,0.4
	c0.2,0.2,0.3,0.6,0.2,0.9l-1.4,7.6c-0.1,0.5-0.6,0.9-1.1,0.9H7.6V11.4z M2.2,12h3.3v8.7H2.2V12z"/>
</svg>
