<?xml version="1.0" encoding="utf-8"?>
<!-- Generator: Adobe Illustrator 27.9.0, SVG Export Plug-In . SVG Version: 6.00 Build 0)  -->
<svg version="1.1" id="Layer_1" xmlns="http://www.w3.org/2000/svg" xmlns:xlink="http://www.w3.org/1999/xlink" x="0px" y="0px"
	 viewBox="0 0 24 24" style="enable-background:new 0 0 24 24;" xml:space="preserve">
<g>
	<path d="M6.1,24c-1.2,0-2.3-0.5-3.1-1.3L1.3,21c-1.7-1.7-1.7-4.5,0-6.2l2.3-2.3c0.6-0.6,1.5-0.6,2.1,0c0.6,0.6,0.6,1.5,0,2.1
		l-2.3,2.3c-0.6,0.6-0.6,1.5,0,2.1l1.7,1.7c0.3,0.3,0.6,0.4,1,0.4c0.4,0,0.8-0.2,1-0.4l6.6-6.6c0.3-0.3,0.4-0.6,0.4-1
		c0-0.4-0.2-0.8-0.4-1l-0.9-0.9c-0.6-0.6-0.6-1.5,0-2.1c0.6-0.6,1.5-0.6,2.1,0l0.9,0.9c0.8,0.8,1.3,1.9,1.3,3.1
		c0,1.2-0.5,2.3-1.3,3.1l-6.6,6.6C8.4,23.5,7.3,24,6.1,24z M10,15.4c-0.4,0-0.8-0.1-1-0.4l-0.9-0.9c-1.7-1.7-1.7-4.5,0-6.2l6.6-6.6
		c1.7-1.7,4.5-1.7,6.2,0L22.7,3C23.5,3.8,24,4.9,24,6.1c0,1.2-0.5,2.3-1.3,3.1l-2.3,2.3c-0.6,0.6-1.5,0.6-2.1,0
		c-0.6-0.6-0.6-1.5,0-2.1l2.3-2.3c0.3-0.3,0.4-0.6,0.4-1c0-0.4-0.2-0.8-0.4-1l-1.7-1.7c-0.6-0.6-1.5-0.6-2.1,0L10.2,10
		c-0.6,0.6-0.6,1.5,0,2.1l0.9,0.9c0.6,0.6,0.6,1.5,0,2.1C10.8,15.3,10.4,15.4,10,15.4z"/>
</g>
</svg>
