<?xml version="1.0" encoding="utf-8"?>
<!-- Generator: Adobe Illustrator 27.9.0, SVG Export Plug-In . SVG Version: 6.00 Build 0)  -->
<svg version="1.1" id="Layer_1" xmlns="http://www.w3.org/2000/svg" xmlns:xlink="http://www.w3.org/1999/xlink" x="0px" y="0px"
	 viewBox="0 0 24 24" style="enable-background:new 0 0 24 24;" xml:space="preserve">
<style type="text/css">
	.st0{fill-rule:evenodd;clip-rule:evenodd;}
</style>
<path class="st0" d="M11.6,23.9c0,0,0,0,0.4-0.5L11.6,23.9z M12.4,23.9L12.4,23.9L12.4,23.9L12.4,23.9c0,0,0.1-0.1,0.1-0.1
	c0.1,0,0.2-0.1,0.3-0.2c0.2-0.2,0.6-0.5,1-0.8c0.8-0.7,1.9-1.7,3.1-3c2.2-2.6,4.5-6.2,4.5-10.4c0-2.5-1-4.9-2.7-6.6
	C16.9,1,14.5,0,12,0S7.1,1,5.4,2.8C3.6,4.5,2.7,6.9,2.7,9.4c0,4.2,2.3,7.8,4.5,10.4c1.1,1.3,2.2,2.3,3.1,3c0.4,0.4,0.8,0.6,1,0.8
	c0.1,0.1,0.2,0.2,0.3,0.2c0,0,0.1,0,0.1,0.1l0,0l0,0l0,0C11.8,24,12.2,24,12.4,23.9z M12,23.3l0.4,0.5C12.4,23.9,12.4,23.9,12,23.3z
	 M15.3,9.3c0,1.8-1.5,3.3-3.3,3.3s-3.3-1.5-3.3-3.3S10.2,6,12,6S15.3,7.5,15.3,9.3z"/>
</svg>
