<?xml version="1.0" encoding="utf-8"?>
<!-- Generator: Adobe Illustrator 27.9.0, SVG Export Plug-In . SVG Version: 6.00 Build 0)  -->
<svg version="1.1" id="Layer_1" xmlns="http://www.w3.org/2000/svg" xmlns:xlink="http://www.w3.org/1999/xlink" x="0px" y="0px"
	 viewBox="0 0 24 24" style="enable-background:new 0 0 24 24;" xml:space="preserve">
<path d="M12.1,0C7.2,0,3,4.2,3,9.2c0,5.2,4.8,10.5,8.1,14.2c0,0,0.5,0.6,1.2,0.6h0.1c0.6,0,1.2-0.6,1.2-0.6c3-3.5,7.5-9.3,7.5-14.2
	C21,4.2,17.8,0,12.1,0L12.1,0z M12.4,22.4C12.4,22.4,12.3,22.5,12.4,22.4c-0.1,0.1-0.2,0-0.2,0l-0.4-0.5c-3.1-3.5-7.3-8.4-7.3-12.8
	C4.5,5,8,1.5,12.1,1.5c5.1,0,7.4,3.8,7.4,7.7C19.5,12.5,17.1,17,12.4,22.4L12.4,22.4z M12,4.5c-2.5,0-4.5,2-4.5,4.5s2,4.5,4.5,4.5
	s4.5-2,4.5-4.5S14.5,4.5,12,4.5L12,4.5z M12,12c-1.7,0-3-1.4-3-3s1.3-3,3-3c1.7,0,3,1.3,3,3C15,10.7,13.7,12,12,12z"/>
</svg>
