<?xml version="1.0" encoding="utf-8"?>
<!-- Generator: Adobe Illustrator 27.9.0, SVG Export Plug-In . SVG Version: 6.00 Build 0)  -->
<svg version="1.1" id="Layer_1" xmlns="http://www.w3.org/2000/svg" xmlns:xlink="http://www.w3.org/1999/xlink" x="0px" y="0px"
	 viewBox="0 0 24 24" style="enable-background:new 0 0 24 24;" xml:space="preserve">
<path d="M5.9,12c0,1.6-1.3,3-3,3s-3-1.3-3-3s1.3-3,3-3S5.9,10.4,5.9,12z M12,9c-1.6,0-3,1.3-3,2.9s1.3,3,2.9,3c0,0,0.1,0,0.1,0
	c1.6,0,2.9-1.4,2.9-3C14.9,10.4,13.6,9.1,12,9z M21,9c-1.6,0-3,1.3-3,3s1.3,3,3,3c1.6,0,3-1.3,3-3C24,10.4,22.7,9,21,9z"/>
</svg>
