<?xml version="1.0" encoding="utf-8"?>
<!-- Generator: Adobe Illustrator 27.9.0, SVG Export Plug-In . SVG Version: 6.00 Build 0)  -->
<svg version="1.1" id="Layer_1" xmlns="http://www.w3.org/2000/svg" xmlns:xlink="http://www.w3.org/1999/xlink" x="0px" y="0px"
	 viewBox="0 0 24 24" style="enable-background:new 0 0 24 24;" xml:space="preserve">
<path d="M0,11.9c0,0.5,0.4,0.8,0.9,0.8c0.3,0,0.5-0.1,0.7-0.3l10-9.1c0.1-0.1,0.2-0.2,0.4-0.2c0.1,0,0.2,0,0.4,0.2l10,9.1
	c0.2,0.2,0.5,0.3,0.7,0.3c0.5,0,0.9-0.3,0.9-0.8c0-0.3-0.1-0.5-0.3-0.7L20.1,8V1.9c0-0.5-0.3-0.7-0.7-0.7h-1.3
	c-0.4,0-0.8,0.3-0.8,0.7v3.5l-4.1-3.7c-0.4-0.3-0.8-0.5-1.2-0.5c-0.4,0-0.9,0.2-1.2,0.5L0.3,11.2C0.1,11.4,0,11.6,0,11.9z M2.9,20.5
	c0,1.4,0.9,2.3,2.3,2.3h13.5c1.4,0,2.3-0.8,2.3-2.3V13l-8.7-7.9C12.2,5.1,12.1,5,12,5c-0.1,0-0.2,0.1-0.3,0.2l-8.7,7.9V20.5z
	 M14.2,13.4l-2.3,0.6c-0.2,0.1-0.3,0.1-0.3,0.5v3.4c0,1.4-1,2.5-2.4,2.5c-1,0-1.6-0.6-1.6-1.5c0-1,0.8-1.5,1.7-1.7l0.9-0.2
	c0.5-0.1,0.5-0.2,0.5-0.7v-4.5c0-0.6,0.1-0.7,0.6-0.8l2.9-0.7c0.5-0.1,0.7,0,0.7,0.4v2C14.9,13.1,14.7,13.2,14.2,13.4z"/>
</svg>
