<?xml version="1.0" encoding="utf-8"?>
<!-- Generator: Adobe Illustrator 27.9.0, SVG Export Plug-In . SVG Version: 6.00 Build 0)  -->
<svg version="1.1" id="Layer_1" xmlns="http://www.w3.org/2000/svg" xmlns:xlink="http://www.w3.org/1999/xlink" x="0px" y="0px"
	 viewBox="0 0 24 24" style="enable-background:new 0 0 24 24;" xml:space="preserve">
<style type="text/css">
	.st0{fill-rule:evenodd;clip-rule:evenodd;}
</style>
<g id="Page-1" transform="translate(0.0,0.0) scale(1.0) translate(0.0,0.0) scale(1.0)">
	<g id="Dribbble-Light-Preview" transform="translate(-300.000000, -3759.000000)">
		<g id="icons" transform="translate(56.000000, 160.000000)">
			<path id="music-_x5B__x23_1004_x5D_" class="st0" d="M268,3599v14.2c0,2.7-2.2,4.9-4.8,4.9c-2.6,0-4.8-2.2-4.8-4.9
				s2.2-4.9,4.8-4.9c0.9,0,1.2,0.2,2.4,0.7v-5h-12v14.2c0,2.7-2.2,4.9-4.8,4.9c-2.6,0-4.8-2.2-4.8-4.9s2.2-4.8,4.8-4.9
				c1.4-0.1,1.6,0.1,2.4,0.7V3599H268z"/>
		</g>
	</g>
</g>
</svg>
