<?xml version="1.0" encoding="utf-8"?>
<!-- Generator: Adobe Illustrator 27.9.0, SVG Export Plug-In . SVG Version: 6.00 Build 0)  -->
<svg version="1.1" id="Layer_1" xmlns="http://www.w3.org/2000/svg" xmlns:xlink="http://www.w3.org/1999/xlink" x="0px" y="0px"
	 viewBox="0 0 24 24" style="enable-background:new 0 0 24 24;" xml:space="preserve">
<path d="M2.8,19.8h11.7c-0.1,1.6-1.1,2.6-2.5,2.6c-1.4,0-2.4-1-2.5-2.6H7.7C7.8,22,9.5,24,12,24c2.5,0,4.2-2,4.3-4.2h4.9
	c1.1,0,1.8-0.6,1.8-1.4c0-1.2-1.2-2.2-2.2-3.2c-0.8-0.8-1-2.5-1.1-3.8c-0.1-4.6-1.3-7.5-4.4-8.7C15,1.2,13.7,0,12,0
	c-1.7,0-3,1.2-3.4,2.7c-3.1,1.1-4.3,4.1-4.4,8.7c-0.1,1.3-0.3,3-1.1,3.8c-1,1-2.2,2.1-2.2,3.2C1,19.2,1.7,19.8,2.8,19.8z M3.3,18.1
	v-0.1c0.2-0.3,0.9-1,1.5-1.7c0.8-0.9,1.2-2.4,1.3-4.7c0.1-5.1,1.6-6.7,3.6-7.2c0.3-0.1,0.4-0.2,0.5-0.5c0-1.2,0.7-2.1,1.8-2.1
	c1.1,0,1.8,0.8,1.8,2.1c0,0.3,0.2,0.4,0.5,0.5c2,0.5,3.5,2.2,3.6,7.2c0.1,2.3,0.5,3.8,1.3,4.7c0.6,0.7,1.3,1.4,1.5,1.7v0.1H3.3z"/>
</svg>
