<?xml version="1.0" encoding="utf-8"?>
<!-- Generator: Adobe Illustrator 27.9.0, SVG Export Plug-In . SVG Version: 6.00 Build 0)  -->
<svg version="1.1" id="Layer_1" xmlns="http://www.w3.org/2000/svg" xmlns:xlink="http://www.w3.org/1999/xlink" x="0px" y="0px"
	 viewBox="0 0 24 24" style="enable-background:new 0 0 24 24;" xml:space="preserve">
<style type="text/css">
	.st0{fill:#020202;}
</style>
<path class="st0" d="M23.7,6.3c-0.2-0.3-0.4-0.7-0.6-0.9l-4.4-4.4c-0.3-0.3-0.6-0.5-0.9-0.6c-0.9-0.4-1.9-0.4-2.8,0
	c-0.7,0.4-1.3,1-1.6,1.8c-0.2,0.5-0.2,1-0.1,1.5L9.9,6.9c-0.5-0.1-1-0.1-1.5-0.1c-2.4,0-4.6,0.9-6.2,2.6l-0.9,0.9l5.4,5.4L0,23.1
	L0.9,24l7.5-6.7l5.4,5.4l0.9-0.9c1.6-1.6,2.6-3.9,2.6-6.2c0-0.5,0-1.1-0.1-1.6l3.3-3.4c0.6,0.1,1.3,0,1.9-0.3c0.7-0.4,1.3-1,1.6-1.8
	S24,7,23.7,6.3z M21.5,7.8c0,0.1-0.1,0.3-0.3,0.4c-0.2,0.1-0.4,0.1-0.6,0l-0.8-0.4l-5.5,5.6l0.2,0.7c0.1,0.5,0.2,1,0.2,1.6
	c0,1.2-0.4,2.4-1,3.4L5,10.3c1-0.7,2.2-1,3.5-1c0.5,0,1.1,0.1,1.6,0.2l0.7,0.2l5.6-5.5l-0.4-0.8c-0.1-0.2-0.1-0.4,0-0.5
	s0.1-0.3,0.3-0.4c0.2-0.1,0.4-0.1,0.6,0c0,0,0.1,0,0.1,0.1l4.4,4.4c0,0,0.1,0.1,0.1,0.2C21.5,7.5,21.5,7.7,21.5,7.8z"/>
</svg>
