<?xml version="1.0" encoding="utf-8"?>
<!-- Generator: Adobe Illustrator 27.9.0, SVG Export Plug-In . SVG Version: 6.00 Build 0)  -->
<svg version="1.1" id="Layer_1" xmlns="http://www.w3.org/2000/svg" xmlns:xlink="http://www.w3.org/1999/xlink" x="0px" y="0px"
	 viewBox="0 0 24 24" style="enable-background:new 0 0 24 24;" xml:space="preserve">
<path d="M21.6,8c-2.1-4.9-5.5-8.7-7.2-8C11.5,1.3,16.1,7,1.8,12.8c-1.2,0.5-1.6,2.5-1,3.7c0.5,1.2,2.2,2.4,3.4,1.9
	c0.2-0.1,1-0.3,1-0.3c0.9,1.2,1.8,0.5,2.1,1.2l1.5,3.5c0.3,0.7,1,1.3,1.4,1.1l2.7-1c0.6-0.2,0.8-0.8,0.6-1.2c-0.2-0.5-1-0.6-1.3-1.2
	c-0.2-0.5-1-2.3-1.3-2.9c-0.3-0.8,0.3-1.4,1.3-1.5c6.5-0.7,7.7,3.3,10,2.4C24.1,17.9,23.7,13,21.6,8z M20.9,16
	c-0.4,0.2-3-1.9-4.6-5.7c-1.6-3.8-1.4-7.3-1.1-7.5c0.4-0.2,2.9,2.3,4.5,6.1C21.4,12.8,21.3,15.9,20.9,16z"/>
</svg>
