<?xml version="1.0" encoding="utf-8"?>
<!-- Generator: Adobe Illustrator 27.9.0, SVG Export Plug-In . SVG Version: 6.00 Build 0)  -->
<svg version="1.1" id="Layer_1" xmlns="http://www.w3.org/2000/svg" xmlns:xlink="http://www.w3.org/1999/xlink" x="0px" y="0px"
	 viewBox="0 0 24 24" style="enable-background:new 0 0 24 24;" xml:space="preserve">
<path d="M18,9c2.5,0,4.5-2,4.5-4.5S20.5,0,18,0c-2.5,0-4.5,2-4.5,4.5c0,0.3,0,0.7,0.1,1l-4.8,3C8,7.9,7.1,7.5,6,7.5
	c-2.5,0-4.5,2-4.5,4.5s2,4.5,4.5,4.5c1.1,0,2-0.4,2.8-1l4.8,3c-0.1,0.3-0.1,0.6-0.1,1c0,2.5,2,4.5,4.5,4.5c2.5,0,4.5-2,4.5-4.5
	S20.5,15,18,15c-1.1,0-2,0.4-2.8,1l-4.8-3c0.1-0.3,0.1-0.6,0.1-1s0-0.7-0.1-1l4.8-3C16,8.6,16.9,9,18,9z"/>
</svg>
