<?xml version="1.0" encoding="utf-8"?>
<!-- Generator: Adobe Illustrator 27.9.0, SVG Export Plug-In . SVG Version: 6.00 Build 0)  -->
<svg version="1.1" id="Layer_1" xmlns="http://www.w3.org/2000/svg" xmlns:xlink="http://www.w3.org/1999/xlink" x="0px" y="0px"
	 viewBox="0 0 24 24" style="enable-background:new 0 0 24 24;" xml:space="preserve">
<style type="text/css">
	.st0{fill-rule:evenodd;clip-rule:evenodd;}
</style>
<g id="Page-1" transform="translate(0.0,0.0) scale(1.0) translate(0.0,0.0) scale(1.0)">
	<g id="Dribbble-Light-Preview" transform="translate(-60.000000, -7483.000000)">
		<g id="icons" transform="translate(56.000000, 160.000000)">
			<path id="soundcloud-_x5B__x23_164_x5D_" class="st0" d="M14.3,7341.3v-12c0-0.4,0.1-0.6,0.3-0.7c3.9-0.9,7.7,1.8,8.1,5.8
				c3.8-1.6,7,3.2,4.1,6.1c-0.7,0.7-1.6,1.1-2.7,1.1l-9.7,0C14.4,7341.5,14.3,7341.4,14.3,7341.3L14.3,7341.3z M11.7,7340.9
				c0,0.9,1.7,0.9,1.7,0v-11.6c0-1.1-1.7-1.1-1.7,0V7340.9L11.7,7340.9z M9.1,7340.9c0,0.8,1.7,0.9,1.7,0v-6.8c0-1.1-1.7-1.1-1.7,0
				V7340.9L9.1,7340.9z M6.6,7340.6c0,0.9,1.6,0.9,1.6,0v-7.5c0-1.1-1.6-1.1-1.6,0V7340.6z M4,7339.2c0,1,1.6,1.3,1.6,0v-3.2
				c0-1.1-1.6-1.1-1.6,0V7339.2z"/>
		</g>
	</g>
</g>
</svg>
