<?xml version="1.0" encoding="utf-8"?>
<!-- Generator: Adobe Illustrator 27.9.0, SVG Export Plug-In . SVG Version: 6.00 Build 0)  -->
<svg version="1.1" id="Layer_1" xmlns="http://www.w3.org/2000/svg" xmlns:xlink="http://www.w3.org/1999/xlink" x="0px" y="0px"
	 viewBox="0 0 24 24" style="enable-background:new 0 0 24 24;" xml:space="preserve">
<style type="text/css">
	.st0{fill-rule:evenodd;clip-rule:evenodd;}
</style>
<g id="Page-1" transform="translate(0.0,0.0) scale(1.0) translate(0.0,0.0) scale(1.0)">
	<g id="Dribbble-Light-Preview" transform="translate(-140.000000, -7479.000000)">
		<g id="icons" transform="translate(56.000000, 160.000000)">
			<path id="spotify-_x5B__x23_162_x5D_" class="st0" d="M103.1,7329.6c-3.9-2.3-10.2-2.5-13.9-1.4c-0.6,0.2-1.2-0.2-1.4-0.7
				c-0.2-0.6,0.2-1.2,0.7-1.4c4.2-1.3,11.3-1,15.7,1.6c0.5,0.3,0.7,1,0.4,1.5C104.3,7329.8,103.6,7330,103.1,7329.6L103.1,7329.6z
				 M103,7333c-0.3,0.4-0.8,0.6-1.3,0.3c-3.2-2-8.1-2.6-12-1.4c-0.5,0.1-1-0.1-1.2-0.6c-0.1-0.5,0.1-1,0.6-1.2
				c4.4-1.3,9.8-0.7,13.5,1.6C103.1,7332,103.2,7332.6,103,7333L103,7333z M101.5,7336.3c-0.2,0.4-0.7,0.5-1,0.2
				c-2.8-1.7-6.4-2.1-10.5-1.2c-0.4,0.1-0.8-0.2-0.9-0.6c-0.1-0.4,0.2-0.8,0.6-0.9c4.6-1,8.5-0.6,11.7,1.3
				C101.6,7335.5,101.7,7336,101.5,7336.3L101.5,7336.3z M96,7319c-6.6,0-12,5.4-12,12s5.4,12,12,12s12-5.4,12-12
				C108,7324.4,102.6,7319,96,7319L96,7319z"/>
		</g>
	</g>
</g>
</svg>
