<?xml version="1.0" encoding="utf-8"?>
<!-- Generator: Adobe Illustrator 27.9.0, SVG Export Plug-In . SVG Version: 6.00 Build 0)  -->
<svg version="1.1" id="Layer_1" xmlns="http://www.w3.org/2000/svg" xmlns:xlink="http://www.w3.org/1999/xlink" x="0px" y="0px"
	 viewBox="0 0 24 24" style="enable-background:new 0 0 24 24;" xml:space="preserve">
<style type="text/css">
	.st0{fill-rule:evenodd;clip-rule:evenodd;}
</style>
<g id="Page-1" transform="translate(0.0,0.0) scale(1.0) translate(0.0,0.0) scale(1.0)">
	<g id="Dribbble-Light-Preview" transform="translate(-60.000000, -7521.000000)">
		<g id="icons" transform="translate(56.000000, 160.000000)">
			<path id="twitter-_x5B__x23_154_x5D_" class="st0" d="M11.5,7382.6c9.1,0,14-7.4,14-13.8c0-0.2,0-0.4,0-0.6
				c1-0.7,1.8-1.5,2.5-2.5c-0.9,0.4-1.9,0.6-2.8,0.8c1-0.6,1.8-1.6,2.2-2.7c-1,0.6-2,1-3.1,1.2c-1.9-2-5-2-7-0.2
				c-1.3,1.2-1.8,2.9-1.4,4.6c-4-0.2-7.6-2-10.1-5.1c-1.3,2.2-0.6,5,1.5,6.5c-0.8,0-1.6-0.2-2.2-0.6v0.1c0,2.3,1.7,4.3,4,4.8
				c-0.7,0.2-1.5,0.2-2.2,0.1c0.6,2,2.5,3.3,4.6,3.4c-1.7,1.3-3.9,2.1-6.1,2.1c-0.4,0-0.8,0-1.2-0.1
				C6.3,7381.8,8.9,7382.6,11.5,7382.6"/>
		</g>
	</g>
</g>
</svg>
