<?xml version="1.0" encoding="utf-8"?>
<!-- Generator: Adobe Illustrator 27.9.0, SVG Export Plug-In . SVG Version: 6.00 Build 0)  -->
<svg version="1.1" id="Layer_1" xmlns="http://www.w3.org/2000/svg" xmlns:xlink="http://www.w3.org/1999/xlink" x="0px" y="0px"
	 viewBox="0 0 24 24" style="enable-background:new 0 0 24 24;" xml:space="preserve">
<style type="text/css">
	.st0{fill-rule:evenodd;clip-rule:evenodd;}
</style>
<g id="Page-1" transform="translate(0.0,0.0) scale(1.0) translate(0.0,0.0) scale(1.0)">
	<g id="Dribbble-Light-Preview" transform="translate(-300.000000, -7442.000000)">
		<g id="icons" transform="translate(56.000000, 160.000000)">
			<path id="youtube-_x5B__x23_168_x5D_" class="st0" d="M253.6,7297.1v-6.7c2.4,1.1,4.2,2.2,6.4,3.4
				C258.2,7294.8,256,7295.9,253.6,7297.1 M266.9,7287c-0.4-0.5-1.1-1-1.9-1.1c-2.2-0.4-15.9-0.4-18.1,0c-0.6,0.1-1.1,0.4-1.6,0.8
				c-1.9,1.8-1.3,11.4-0.9,13c0.2,0.7,0.4,1.2,0.8,1.5c0.4,0.4,1,0.7,1.6,0.8c1.8,0.4,11.1,0.6,18.1,0.1c0.6-0.1,1.2-0.4,1.7-0.9
				C268.5,7299.4,268.3,7289.3,266.9,7287"/>
		</g>
	</g>
</g>
</svg>
